<svg width="22" height="19" viewBox="0 0 22 19" fill="none" xmlns="http://www.w3.org/2000/svg">
<path d="M1.29011 12.3558L7.24598 12.9139L9.57775 18.4897C9.6466 18.6466 9.79783 18.7515 9.96897 18.7609C10.1317 18.7616 10.2831 18.6777 10.3691 18.5395L13.2044 15.1524L18.6786 17.3741C18.8065 17.4258 18.951 17.415 19.0698 17.3449C19.1884 17.2746 19.2677 17.1532 19.2841 17.0162L21.2468 0.485302C21.2666 0.318318 21.1901 0.154635 21.0492 0.0627531C20.9084 -0.0291282 20.7277 -0.0333109 20.583 0.0520311L1.10691 11.5344C0.94169 11.6319 0.858178 11.8246 0.89992 12.0117C0.941659 12.1989 1.09917 12.3379 1.29015 12.3559L1.29011 12.3558ZM17.912 3.58042L10.5697 13.4865C10.5313 13.5385 10.5048 13.5979 10.4917 13.6609L9.84081 16.8266L8.07977 12.6155L17.912 3.58042Z" fill="#D58A5C"/>
</svg>
